<?xml version="1.0" standalone="no"?>
<!DOCTYPE svg PUBLIC "-//W3C//DTD SVG 20010904//EN"
 "http://www.w3.org/TR/2001/REC-SVG-20010904/DTD/svg10.dtd">
<svg version="1.0" xmlns="http://www.w3.org/2000/svg"
 width="500.000000pt" height="500.000000pt" viewBox="0 0 500.000000 500.000000"
 preserveAspectRatio="xMidYMid meet">

<g transform="translate(0.000000,500.000000) scale(0.100000,-0.100000)"
fill="#000000" stroke="none">
<path d="M1490 2165 c0 -98 1 -105 20 -105 17 0 20 7 20 45 l0 45 45 0 45 0 0
-45 c0 -39 3 -45 20 -45 20 0 21 5 18 102 -3 89 -5 103 -20 106 -15 3 -18 -4
-18 -42 l0 -46 -45 0 -45 0 0 45 c0 38 -3 45 -20 45 -19 0 -20 -7 -20 -105z"/>
<path d="M1772 2253 c-5 -10 -21 -49 -35 -88 -14 -38 -28 -78 -32 -87 -12 -29
30 -22 43 7 9 20 19 25 47 25 29 0 37 -5 45 -25 6 -15 17 -25 29 -25 19 0 19
2 -6 68 -14 37 -31 83 -38 102 -14 39 -39 50 -53 23z m42 -90 c6 -20 4 -23
-18 -23 -29 0 -31 6 -15 47 11 30 19 24 33 -24z"/>
<path d="M1930 2165 c0 -98 1 -105 20 -105 17 0 20 7 20 40 0 39 1 40 34 40
48 0 66 9 77 36 20 55 -27 94 -112 94 l-39 0 0 -105z m104 59 c18 -18 18 -17
10 -38 -4 -10 -18 -16 -40 -16 -32 0 -34 2 -34 35 0 30 3 35 24 35 14 0 32 -7
40 -16z"/>
<path d="M2140 2165 c0 -98 1 -105 20 -105 17 0 20 7 20 40 0 40 0 40 39 40
23 0 46 7 55 16 17 16 21 61 8 81 -11 18 -58 33 -103 33 l-39 0 0 -105z m94
62 c29 -21 16 -51 -22 -55 -31 -3 -32 -2 -32 32 0 40 20 48 54 23z"/>
<path d="M2330 2265 c0 -3 14 -32 30 -65 19 -37 30 -75 30 -100 0 -33 3 -40
20 -40 16 0 20 7 20 35 0 21 15 65 35 105 33 65 34 70 15 70 -13 0 -27 -15
-44 -47 l-24 -48 -23 48 c-15 30 -29 47 -41 47 -10 0 -18 -2 -18 -5z"/>
<path d="M2663 2260 c-28 -11 -40 -54 -22 -76 8 -9 33 -25 57 -35 31 -14 43
-24 40 -36 -4 -23 -51 -29 -68 -9 -7 9 -19 16 -26 16 -22 0 -16 -27 8 -44 47
-33 128 -9 128 38 0 28 -22 49 -73 70 -27 11 -38 21 -35 33 4 23 41 28 61 9
27 -27 59 -19 39 10 -20 30 -68 40 -109 24z"/>
<path d="M2830 2166 c0 -99 1 -106 20 -106 17 0 19 8 22 73 l3 72 25 -73 c16
-48 29 -72 39 -70 7 2 26 37 40 78 l26 74 3 -77 c3 -69 5 -77 23 -77 19 0 20
6 17 103 -3 101 -3 102 -28 105 -22 2 -27 -4 -44 -50 -40 -114 -35 -112 -66
-28 -24 65 -31 75 -54 78 l-26 3 0 -105z"/>
<path d="M3110 2165 c0 -98 1 -105 20 -105 19 0 20 7 20 105 0 98 -1 105 -20
105 -19 0 -20 -7 -20 -105z"/>
<path d="M3210 2165 l0 -105 65 0 c51 0 65 3 65 15 0 11 -12 15 -45 15 l-45 0
0 90 c0 83 -1 90 -20 90 -19 0 -20 -7 -20 -105z"/>
<path d="M3390 2165 l0 -105 65 0 c50 0 65 3 65 14 0 11 -14 16 -47 18 -44 3
-48 5 -51 31 -3 26 -2 27 42 27 33 0 46 4 46 14 0 10 -14 16 -42 18 -38 3 -43
6 -43 28 0 23 4 25 48 28 33 2 47 7 47 18 0 11 -15 14 -65 14 l-65 0 0 -105z"/>
</g>
</svg>
